<?xml version="1.0" standalone="no"?>
<!DOCTYPE svg PUBLIC "-//W3C//DTD SVG 20010904//EN"
 "http://www.w3.org/TR/2001/REC-SVG-20010904/DTD/svg10.dtd">
<svg version="1.0" xmlns="http://www.w3.org/2000/svg"
 width="200.000000pt" height="200.000000pt" viewBox="0 0 200.000000 200.000000"
 preserveAspectRatio="xMidYMid meet">

<g transform="translate(0.000000,200.000000) scale(0.100000,-0.100000)"
fill="#000000" stroke="none">
<path d="M220 1850 c0 -5 5 -10 10 -10 6 0 10 5 10 10 0 6 -4 10 -10 10 -5 0
-10 -4 -10 -10z"/>
<path d="M265 1805 c-31 -30 -31 -36 0 -73 30 -36 32 -67 6 -82 -30 -16 -47
-12 -58 12 -7 17 -6 26 7 38 9 8 9 11 1 5 -15 -10 -14 3 5 88 7 30 -3 34 -32
12 -15 -12 -16 -14 -2 -9 16 6 17 3 3 -41 -24 -82 3 -135 60 -121 59 15 71 66
29 116 l-27 31 21 21 c18 18 23 19 37 8 8 -7 19 -10 22 -6 8 8 -16 26 -35 26
-7 0 -24 -11 -37 -25z"/>
<path d="M355 1785 c-33 -32 -33 -78 -1 -110 21 -21 33 -24 102 -24 42 0 86 5
96 10 22 12 24 42 3 59 -11 9 -12 17 -5 30 13 24 13 26 -6 44 -11 12 -36 16
-90 16 -66 0 -78 -3 -99 -25z m103 -49 c3 -52 -6 -66 -45 -66 -28 0 -63 33
-63 60 0 33 37 62 73 58 31 -3 32 -5 35 -52z m67 29 c0 -13 -8 -21 -22 -23
-19 -3 -23 1 -23 23 0 22 4 26 23 23 14 -2 22 -10 22 -23z m12 -56 c18 -18 3
-39 -28 -39 -24 0 -29 4 -29 25 0 19 5 25 23 25 13 0 28 -5 34 -11z"/>
<path d="M640 1730 c0 -40 4 -70 10 -70 6 0 10 14 10 30 0 38 12 38 43 -1 13
-17 30 -30 36 -28 9 3 6 13 -8 31 -18 23 -19 27 -6 38 17 14 20 46 5 55 -5 3
-28 8 -50 11 l-40 5 0 -71z m69 37 c6 -8 8 -17 4 -20 -12 -12 -53 -7 -53 6 0
28 30 37 49 14z"/>
<path d="M770 1730 l0 -70 45 0 c25 0 45 5 45 10 0 6 -16 10 -35 10 -28 0 -35
4 -35 20 0 15 7 20 29 20 17 0 33 5 36 10 4 6 -8 10 -30 10 -29 0 -36 3 -33
18 2 12 13 17 36 17 19 0 32 5 32 12 0 9 -15 13 -45 13 l-45 0 0 -70z"/>
<path d="M905 1775 c-28 -27 -30 -42 -13 -80 22 -49 108 -42 108 10 0 20 -5
25 -25 25 -14 0 -25 -4 -25 -10 0 -5 7 -10 15 -10 22 0 18 -18 -5 -25 -28 -9
-50 11 -50 45 0 37 25 58 51 42 30 -19 44 -14 24 8 -24 27 -51 25 -80 -5z"/>
<path d="M1030 1731 c0 -41 4 -71 10 -71 6 0 10 28 10 64 0 36 -4 68 -10 71
-6 4 -10 -20 -10 -64z"/>
<path d="M1097 1787 c-10 -6 -20 -28 -23 -48 -7 -43 20 -79 60 -79 58 0 81 83
34 123 -24 20 -48 22 -71 4z m62 -21 c17 -20 10 -67 -11 -79 -23 -15 -48 8
-48 42 0 45 35 66 59 37z"/>
<path d="M1220 1730 c0 -76 17 -97 22 -27 l3 42 25 -42 c36 -62 50 -56 50 21
0 76 -17 99 -22 29 l-3 -48 -28 48 c-15 26 -32 47 -37 47 -6 0 -10 -31 -10
-70z"/>
<path d="M1370 1754 c-28 -64 -34 -94 -21 -94 6 0 14 7 17 15 8 21 54 19 70
-2 7 -10 15 -15 19 -12 8 9 -45 139 -56 139 -6 0 -19 -21 -29 -46z m40 -25 c0
-11 -7 -19 -16 -19 -11 0 -14 5 -10 16 3 9 6 20 6 25 0 6 5 7 10 4 6 -3 10
-15 10 -26z"/>
<path d="M1480 1730 l0 -70 45 0 c25 0 45 5 45 10 0 6 -16 10 -35 10 l-35 0 0
60 c0 33 -4 60 -10 60 -6 0 -10 -30 -10 -70z"/>
<path d="M217 1602 c-23 -26 -21 -45 9 -81 34 -40 26 -66 -17 -57 -22 4 -29 2
-27 -7 6 -16 42 -21 67 -7 29 15 26 52 -5 89 -22 26 -24 34 -14 47 7 8 21 13
30 12 9 -2 18 2 19 7 3 18 -45 16 -62 -3z"/>
<path d="M684 1590 c-4 -20 -13 -30 -24 -30 -30 0 -70 -39 -70 -69 0 -34 17
-51 51 -51 26 0 28 4 44 73 9 39 18 80 21 90 3 9 0 17 -6 17 -6 0 -13 -13 -16
-30z m-19 -72 c-4 -13 -9 -31 -12 -41 -6 -24 -37 -17 -41 9 -3 24 21 54 44 54
11 0 14 -6 9 -22z"/>
<path d="M347 1560 c-11 -11 -14 -19 -7 -22 8 -2 7 -12 -1 -36 -6 -18 -8 -39
-5 -47 6 -17 46 -21 46 -5 0 6 -7 10 -15 10 -8 0 -15 4 -15 9 0 17 21 65 31
72 10 6 2 39 -10 38 -3 0 -14 -8 -24 -19z"/>
<path d="M1055 1567 c-5 -7 -11 -38 -13 -69 -3 -52 -1 -58 17 -58 11 0 23 5
26 10 3 6 -1 10 -9 10 -9 0 -16 8 -16 18 0 33 12 62 26 62 8 0 14 5 14 10 0 6
-5 10 -11 10 -5 0 -7 5 -4 10 9 14 -18 12 -30 -3z"/>
<path d="M1177 1552 c-10 -10 -17 -32 -17 -49 0 -40 29 -65 72 -61 29 3 33 7
36 36 3 29 1 32 -22 32 -14 0 -26 -4 -26 -10 0 -5 7 -10 15 -10 8 0 15 -7 15
-15 0 -19 -44 -20 -60 -1 -30 37 12 92 51 68 25 -16 37 -8 19 13 -17 21 -63
19 -83 -3z"/>
<path d="M1300 1506 c0 -37 4 -66 10 -66 6 0 10 11 10 25 0 15 6 25 15 25 8 0
22 -11 31 -25 9 -14 23 -25 31 -25 11 0 10 6 -6 29 -18 25 -19 30 -5 35 10 4
14 16 12 33 -3 26 -7 28 -50 31 l-48 3 0 -65z m75 24 c0 -23 -49 -20 -53 3 -3
15 2 18 25 15 17 -2 28 -9 28 -18z"/>
<path d="M1442 1557 c-40 -48 -15 -117 43 -117 38 0 55 20 55 65 0 44 -17 65
-54 65 -19 0 -38 -6 -44 -13z m71 -28 c5 -9 7 -28 3 -43 -5 -22 -11 -27 -34
-24 -21 2 -28 9 -30 31 -2 16 -1 35 2 44 7 18 46 13 59 -8z"/>
<path d="M1572 1508 l3 -63 40 0 40 0 3 63 c2 38 -1 62 -8 62 -6 0 -10 -24
-10 -56 0 -52 -1 -55 -22 -52 -20 3 -23 10 -26 56 -2 28 -8 52 -13 52 -6 0 -9
-26 -7 -62z"/>
<path d="M1690 1506 c0 -52 3 -66 15 -66 9 0 15 9 15 24 0 19 6 25 26 28 15 2
32 11 38 21 18 28 -4 52 -53 55 l-41 3 0 -65z m70 24 c0 -13 -7 -20 -20 -20
-13 0 -20 7 -20 20 0 13 7 20 20 20 13 0 20 -7 20 -20z"/>
<path d="M456 1551 c-4 -5 -9 -30 -12 -55 -5 -37 -4 -47 10 -52 9 -3 23 -1 31
6 10 9 15 9 15 1 0 -6 4 -11 9 -11 8 0 31 82 31 111 0 22 -19 -3 -25 -34 -9
-38 -22 -57 -42 -57 -11 0 -12 10 -7 50 6 47 2 62 -10 41z"/>
<path d="M758 1543 c-23 -27 -27 -59 -11 -82 17 -25 45 -27 63 -6 11 13 8 14
-19 9 -27 -6 -31 -4 -31 15 0 17 6 21 35 21 36 0 42 10 29 44 -8 21 -47 20
-66 -1z m52 -13 c0 -5 -9 -10 -20 -10 -11 0 -20 5 -20 10 0 6 9 10 20 10 11 0
20 -4 20 -10z"/>
<path d="M890 1519 c-6 -24 -14 -52 -17 -63 -3 -12 -1 -17 8 -14 7 2 17 21 23
43 11 36 38 66 51 53 3 -3 1 -25 -4 -49 -5 -24 -8 -46 -5 -48 9 -9 22 20 28
62 8 48 -5 67 -33 50 -13 -8 -22 -8 -29 -1 -7 7 -14 -3 -22 -33z"/>
<path d="M1345 1305 c-40 -75 -71 -124 -78 -121 -131 56 -246 46 -388 -31 -3
-2 -53 53 -109 122 -64 78 -110 125 -121 125 -11 0 -19 -4 -19 -9 0 -8 98
-131 120 -151 26 -24 90 -111 90 -123 0 -8 -7 -20 -16 -28 -25 -20 -57 -89
-69 -149 l-12 -55 -189 4 -189 3 -31 34 c-47 50 -112 47 -139 -7 -22 -42 -18
-67 14 -100 40 -40 83 -39 121 1 l28 30 191 0 c145 0 192 -3 195 -12 2 -7 9
-35 15 -63 19 -82 116 -203 183 -228 9 -3 -3 -36 -44 -115 -32 -61 -58 -115
-58 -120 0 -6 7 -12 15 -16 11 -4 30 25 75 115 48 95 64 119 78 115 76 -22
174 -13 244 24 21 11 40 20 42 20 4 0 219 -269 230 -287 4 -7 2 -22 -4 -33
-14 -27 4 -86 30 -100 81 -43 168 41 121 117 -15 24 -30 34 -58 38 -21 4 -43
8 -49 10 -6 2 -56 57 -110 122 -54 65 -104 126 -112 135 -13 16 -11 21 17 53
36 41 64 93 81 151 l12 40 112 -4 c88 -3 113 -7 123 -20 41 -57 90 -68 136
-32 33 26 41 63 22 100 -18 35 -43 50 -82 50 -29 0 -73 -31 -73 -51 0 -6 -45
-9 -117 -7 l-118 3 -7 60 c-10 75 -46 149 -97 199 l-40 39 64 128 c53 104 62
129 51 139 -11 9 -27 -13 -81 -115z m-222 -289 c18 -7 41 -23 51 -35 l19 -21
-34 17 c-70 35 -155 10 -190 -57 -50 -93 13 -200 119 -200 24 0 57 7 75 17 30
15 31 15 18 -1 -25 -30 -88 -56 -137 -56 -129 0 -212 136 -154 254 40 83 144
120 233 82z m-819 -97 c34 -27 32 -64 -5 -91 -20 -15 -30 -17 -51 -9 -60 23
-43 114 23 120 4 1 18 -9 33 -20z m1011 -21 c29 5 29 5 14 -19 -15 -22 -15
-26 0 -48 15 -24 15 -24 -12 -17 -22 5 -32 2 -47 -16 l-19 -23 -1 28 c0 21 -7
31 -30 40 l-29 13 29 11 c23 9 30 18 30 40 l1 28 18 -21 c13 -17 25 -21 46
-16z m501 -44 c37 -55 -25 -117 -80 -80 -30 19 -35 65 -10 90 25 25 71 20 90
-10z m-174 -591 c37 -33 11 -103 -39 -103 -28 0 -63 33 -63 60 0 26 34 60 62
60 12 0 30 -7 40 -17z"/>
<path d="M187 263 c-13 -12 -7 -20 14 -19 32 1 34 -20 5 -47 -26 -24 -36 -44
-16 -32 6 4 18 1 26 -6 12 -10 22 -10 49 0 27 9 38 9 54 -1 15 -9 25 -9 46 0
19 9 30 9 44 0 20 -12 75 -3 66 12 -3 5 -12 7 -19 4 -24 -9 -29 17 -9 45 17
22 18 29 7 39 -16 15 -66 16 -81 1 -8 -8 -13 -8 -17 0 -9 14 -51 14 -76 1 -13
-7 -21 -7 -25 0 -7 11 -58 14 -68 3z m138 -24 c8 -13 -29 -55 -55 -62 -10 -2
-24 -1 -31 4 -11 7 -7 16 19 39 34 31 56 38 67 19z m95 -7 c0 -21 -27 -49 -50
-52 -47 -7 -52 9 -15 45 29 30 65 33 65 7z"/>
<path d="M520 260 c0 -5 7 -10 15 -10 11 0 15 -12 15 -50 0 -27 5 -50 10 -50
6 0 10 23 10 50 0 38 4 50 15 50 8 0 15 5 15 10 0 6 -18 10 -40 10 -22 0 -40
-4 -40 -10z"/>
<path d="M758 264 c-12 -11 -10 -102 2 -109 6 -3 10 4 10 17 l1 23 20 -24 c24
-29 37 -21 15 10 -14 21 -14 24 1 41 9 10 11 18 6 18 -6 0 -17 -7 -24 -17 -13
-15 -15 -13 -19 16 -3 18 -8 29 -12 25z"/>
<path d="M667 233 c-4 -3 -7 -19 -7 -35 0 -18 -5 -28 -15 -28 -10 0 -15 10
-15 30 0 17 -5 30 -11 30 -6 0 -9 -16 -7 -37 3 -35 5 -38 36 -39 31 -1 32 0
32 43 0 44 -2 48 -13 36z"/>
<path d="M700 192 c0 -26 4 -41 10 -37 6 3 10 19 10 36 0 16 5 29 10 29 6 0
10 4 10 9 0 6 -9 9 -20 8 -17 -1 -20 -8 -20 -45z"/>
<path d="M842 228 c-16 -16 -15 -53 3 -68 17 -14 47 -10 53 8 3 11 0 12 -16 3
-19 -10 -32 -6 -32 11 0 4 13 8 30 8 24 0 28 3 23 18 -12 32 -40 41 -61 20z
m43 -18 c3 -5 -3 -10 -14 -10 -12 0 -21 5 -21 10 0 6 6 10 14 10 8 0 18 -4 21
-10z"/>
<path d="M920 228 c0 -6 6 -27 13 -46 10 -28 10 -36 0 -39 -18 -6 -16 -23 1
-23 8 0 24 24 36 56 22 61 20 89 -3 34 l-14 -32 -11 31 c-11 31 -22 41 -22 19z"/>
</g>
</svg>
